<svg width="54" height="21" viewBox="0 0 54 21" fill="none" xmlns="http://www.w3.org/2000/svg">
<path d="M4.528 14.408C3.45067 14.408 2.54933 14.1947 1.824 13.768C0.917333 13.2453 0.464 12.488 0.464 11.496C0.464 10.4933 0.912 9.60267 1.808 8.824C2.65067 8.07733 3.584 7.704 4.608 7.704C5.04533 7.704 5.264 7.74667 5.264 7.832C5.264 7.87467 5.104 7.89067 4.784 7.88C3.74933 7.88 2.89067 8.18933 2.208 8.808C1.48267 9.46933 1.12 10.3013 1.12 11.304C1.12 12.2 1.41867 12.9147 2.016 13.448C2.61333 13.9813 3.37067 14.248 4.288 14.248C5.056 14.248 5.92 14.0613 6.88 13.688C8.55467 13.0053 9.392 11.9547 9.392 10.536C9.392 9.704 9.008 8.99467 8.24 8.408L6.112 7.032C5.35467 6.46667 4.976 5.83733 4.976 5.144C4.976 4.64267 5.15733 4.19467 5.52 3.8C5.17867 3.832 4.896 3.99733 4.672 4.296C4.448 4.584 4.336 4.904 4.336 5.256C4.336 6.00267 4.67733 6.65333 5.36 7.208L7.328 8.552C8.05333 9.10667 8.45333 9.74667 8.528 10.472C8.74133 10.2587 8.90667 10.152 9.024 10.152C9.10933 10.152 9.152 10.216 9.152 10.344C9.152 10.7173 8.89067 11.1173 8.368 11.544C8.13333 12.1627 7.664 12.7227 6.96 13.224C6.27733 13.7147 5.6 13.96 4.928 13.96C4.87467 13.96 4.848 13.944 4.848 13.912C4.848 13.848 4.89067 13.816 4.976 13.816L5.584 13.72C6.08533 13.5813 6.56 13.3253 7.008 12.952C7.456 12.568 7.78667 12.1413 8 11.672C7.78667 11.4267 7.68 11.1387 7.68 10.808C7.68 10.4453 7.77067 10.264 7.952 10.264C8.03733 10.264 8.11733 10.3013 8.192 10.376C8.14933 10.0347 8.02667 9.70933 7.824 9.4C7.632 9.09067 7.35467 8.81333 6.992 8.568L5.104 7.272C4.44267 6.70667 4.112 6.04 4.112 5.272C4.112 4.84533 4.25067 4.47733 4.528 4.168C4.816 3.848 5.17333 3.688 5.6 3.688H5.632C6.42133 2.93067 7.48267 2.552 8.816 2.552C9.968 2.552 10.768 2.81333 11.216 3.336C11.376 3.50667 11.456 3.69867 11.456 3.912C11.456 4.27467 11.2213 4.54667 10.752 4.728C10.4213 4.856 10.032 4.92 9.584 4.92C9.37067 4.92 9.14667 4.904 8.912 4.872C8.67733 4.84 8.42667 4.79733 8.16 4.744C7.552 4.59467 7.11467 4.41867 6.848 4.216C6.82667 4.19467 6.816 4.17867 6.816 4.168C6.816 4.136 6.832 4.12 6.864 4.12C6.896 4.12 6.91733 4.12533 6.928 4.136C7.55733 4.54133 8.42667 4.744 9.536 4.744C9.888 4.744 10.208 4.68533 10.496 4.568C10.8693 4.41867 11.056 4.19467 11.056 3.896C11.056 3.49067 10.7627 3.18667 10.176 2.984C9.728 2.83467 9.27467 2.76 8.816 2.76C7.41867 2.76 6.464 3.208 5.952 4.104C5.78133 4.38133 5.696 4.68533 5.696 5.016C5.696 5.67733 6.07467 6.27467 6.832 6.808L8.944 8.152C9.70133 8.78133 10.08 9.55467 10.08 10.472C10.08 11.7093 9.44 12.7067 8.16 13.464C7.08267 14.0933 5.872 14.408 4.528 14.408ZM9.91987 20.904C9.40787 20.904 8.94921 20.7013 8.54387 20.296C8.14921 19.9013 7.95187 19.432 7.95187 18.888C7.95187 17.9493 8.51187 16.2747 9.63187 13.864L12.1279 8.808C11.5412 7.96533 11.2479 7.23467 11.2479 6.616C11.2479 6.06133 11.4825 5.784 11.9519 5.784C12.5599 5.784 12.8639 6.152 12.8639 6.888C12.8639 7.25067 12.7572 7.76267 12.5439 8.424C12.8532 8.76533 13.1092 9.05867 13.3119 9.304C13.5145 9.54933 13.6692 9.74667 13.7759 9.896C14.2452 10.5573 14.4799 11.128 14.4799 11.608C14.4799 12.0133 14.2825 12.3333 13.8879 12.568C13.5465 12.7813 13.1625 12.888 12.7359 12.888C12.4692 12.888 12.1652 12.824 11.8239 12.696C11.3972 12.5573 11.1839 12.376 11.1839 12.152C11.1839 12.1413 11.1839 12.136 11.1839 12.136C11.1945 12.1253 11.1999 12.1147 11.1999 12.104C11.1785 12.1253 11.3279 12.216 11.6479 12.376C11.9892 12.5467 12.3092 12.632 12.6079 12.632C12.8959 12.632 13.1572 12.552 13.3919 12.392C13.6372 12.2213 13.7599 11.9973 13.7599 11.72C13.7599 11.0267 13.2852 10.1467 12.3359 9.08L10.1919 14.12C9.32787 16.2747 8.89587 17.9973 8.89587 19.288C8.89587 20.2373 9.20521 20.712 9.82387 20.712C10.2292 20.712 10.7199 20.536 11.2959 20.184C11.1892 20.376 10.9919 20.5413 10.7039 20.68C10.3839 20.8293 10.1225 20.904 9.91987 20.904ZM12.3679 8.28C12.5492 7.85333 12.6399 7.38933 12.6399 6.888C12.6399 6.26933 12.4425 5.96 12.0479 5.96C11.8665 5.96 11.7759 6.152 11.7759 6.536C11.7759 7.13333 11.9732 7.71467 12.3679 8.28ZM17.6383 13.064C17.3503 13.064 17.1263 12.9147 16.9663 12.616C16.8383 12.3707 16.7743 12.088 16.7743 11.768C16.7743 11.608 16.7849 11.432 16.8063 11.24C16.8383 11.0373 16.8809 10.8187 16.9343 10.584C16.2623 12.0773 15.5689 12.824 14.8543 12.824C14.4169 12.824 14.1982 12.5413 14.1982 11.976C14.1982 11.0693 14.6356 10.1307 15.5103 9.16C16.3956 8.168 17.2756 7.672 18.1503 7.672C18.5663 7.672 18.7743 7.85333 18.7743 8.216C18.7743 8.664 18.4756 9.112 17.8783 9.56C17.5689 10.328 17.4143 11.1173 17.4143 11.928C17.4143 12.536 17.5476 12.84 17.8143 12.84C18.1876 12.84 18.8276 12.168 19.7343 10.824C19.7983 10.7387 19.8463 10.696 19.8783 10.696C19.9103 10.696 19.9263 10.7173 19.9263 10.76C19.9263 10.8133 19.9049 10.8667 19.8623 10.92C18.9023 12.3493 18.1609 13.064 17.6383 13.064ZM14.9183 12.328C15.5903 12.328 16.2409 11.5813 16.8703 10.088C16.7849 10.1093 16.7049 10.1307 16.6303 10.152C16.5663 10.1627 16.5076 10.168 16.4543 10.168C16.4116 10.168 16.3903 10.152 16.3903 10.12C16.3903 10.0667 16.4649 10.0133 16.6143 9.96L17.1103 9.672C17.1316 9.49067 17.2436 9.256 17.4463 8.968C17.6489 8.66933 17.8409 8.52 18.0223 8.52C18.0863 8.52 18.1183 8.568 18.1183 8.664C18.1183 8.73867 18.0916 8.856 18.0383 9.016C18.2089 8.78133 18.2943 8.552 18.2943 8.328C18.2943 8.08267 18.1823 7.96 17.9583 7.96C17.4249 7.96 16.7263 8.488 15.8623 9.544C14.9983 10.5787 14.5663 11.384 14.5663 11.96C14.5663 12.2053 14.6836 12.328 14.9183 12.328ZM22.1519 16.344C22.0452 16.344 21.9919 16.3067 21.9919 16.232C21.9919 16.168 22.0292 16.1307 22.1039 16.12C22.1892 16.1093 22.3119 16.0773 22.4719 16.024C22.9839 15.8107 23.4959 15.2667 24.0079 14.392C22.8452 14.36 21.9385 14.0507 21.2879 13.464C20.5945 12.8347 20.2479 11.9493 20.2479 10.808C20.2479 9.45333 20.7439 8.072 21.7359 6.664C22.6852 5.33067 23.7945 4.33867 25.0639 3.688C24.7652 3.656 24.5252 3.64 24.3439 3.64C24.1305 3.64 23.9065 3.656 23.6719 3.688C23.4479 3.70933 23.2185 3.74667 22.9839 3.8C22.3865 3.93867 21.8532 4.14667 21.3839 4.424C20.7332 4.808 20.4079 5.23467 20.4079 5.704C20.4079 5.75733 20.4132 5.8 20.4239 5.832V5.96C20.4239 6.10933 20.3759 6.184 20.2799 6.184C20.1412 6.184 20.0345 6.08267 19.9599 5.88C19.8852 5.73067 19.8479 5.576 19.8479 5.416C19.8479 4.75467 20.4399 4.24267 21.6239 3.88C22.4879 3.624 23.3572 3.496 24.2319 3.496C24.3705 3.496 24.5305 3.50667 24.7119 3.528C24.8932 3.53867 25.0905 3.55467 25.3039 3.576C25.5705 3.45867 25.8372 3.352 26.1039 3.256C26.3705 3.16 26.6372 3.08 26.9039 3.016C26.9145 2.83467 26.9199 2.664 26.9199 2.504C26.9199 2.33333 26.9199 2.17333 26.9199 2.024C26.9199 1.91733 26.9145 1.75733 26.9039 1.544C26.8932 1.32 26.8879 1.15467 26.8879 1.048C26.8879 0.962666 26.9145 0.919999 26.9679 0.919999C26.9892 0.919999 27.0105 0.946666 27.0319 0.999999C27.1172 1.30933 27.1599 1.74133 27.1599 2.296C27.1599 2.40267 27.1599 2.51467 27.1599 2.632C27.1599 2.73867 27.1545 2.85067 27.1439 2.968C27.3572 2.92533 27.5652 2.89333 27.7679 2.872C27.9705 2.85067 28.1679 2.84 28.3599 2.84C29.3732 2.84 30.1732 3.10667 30.7599 3.64C31.3572 4.16267 31.6559 4.91467 31.6559 5.896V5.976C31.6559 6.15733 31.5812 6.248 31.4319 6.248C31.3465 6.248 31.2452 6.216 31.1279 6.152C30.6372 5.85333 30.2265 5.61333 29.8959 5.432C29.5759 5.24 29.3305 5.10133 29.1599 5.016C28.7972 4.824 28.4399 4.65333 28.0879 4.504C27.7359 4.35467 27.3892 4.22667 27.0479 4.12C26.9945 4.632 26.9199 5.16533 26.8239 5.72C26.7279 6.264 26.6212 6.82933 26.5039 7.416C26.6745 7.27733 26.8185 7.208 26.9359 7.208C27.0532 7.208 27.1119 7.27733 27.1119 7.416C27.1119 7.64 27.0105 7.89067 26.8079 8.168C26.5945 8.44533 26.3919 8.63733 26.1999 8.744C25.9545 9.74667 25.6879 10.6693 25.3999 11.512C25.1225 12.344 24.8239 13.0907 24.5039 13.752C24.5785 13.7627 24.6479 13.768 24.7119 13.768C24.7865 13.768 24.8612 13.768 24.9359 13.768C26.1945 13.768 27.4265 13.4587 28.6319 12.84C29.8905 12.2213 30.8505 11.3947 31.5119 10.36C31.5972 10.232 31.6505 10.168 31.6719 10.168C31.6825 10.1787 31.6879 10.1947 31.6879 10.216C31.6879 10.3013 31.6665 10.3813 31.6239 10.456C30.9625 11.576 29.8852 12.52 28.3919 13.288C26.9519 14.0027 25.5492 14.3707 24.1839 14.392C23.4585 15.6933 22.7812 16.344 22.1519 16.344ZM30.9999 5.32C31.0852 5.32 31.1279 5.26133 31.1279 5.144C31.1279 5.02667 31.0905 4.89867 31.0159 4.76C30.7492 4.25867 30.2692 3.87467 29.5759 3.608C28.9999 3.37333 28.3812 3.256 27.7199 3.256C27.6132 3.256 27.5119 3.26133 27.4159 3.272C27.3199 3.272 27.2185 3.27733 27.1119 3.288L27.0639 3.864C27.7039 4.00267 28.3332 4.184 28.9519 4.408C29.5812 4.632 30.1945 4.90933 30.7919 5.24C30.8772 5.29333 30.9465 5.32 30.9999 5.32ZM26.8399 3.816L26.8719 3.304C26.4452 3.368 26.0399 3.47467 25.6559 3.624L26.8399 3.816ZM24.3439 13.736C24.6745 13.0747 24.9785 12.3227 25.2559 11.48C25.5439 10.6267 25.8052 9.688 26.0399 8.664C25.7519 8.29067 25.6079 7.91733 25.6079 7.544C25.6079 7.20267 25.6985 7.032 25.8799 7.032C26.0292 7.032 26.1679 7.176 26.2959 7.464C26.5412 6.25867 26.7172 5.12267 26.8239 4.056C26.5892 3.98133 26.3492 3.92267 26.1039 3.88C25.8692 3.82667 25.6292 3.77867 25.3839 3.736C24.1679 4.30133 23.1652 5.20267 22.3759 6.44C21.5759 7.688 21.1759 8.97867 21.1759 10.312C21.1759 11.3147 21.4532 12.1147 22.0079 12.712C22.5625 13.2987 23.3412 13.64 24.3439 13.736ZM32.7726 13.144C32.0153 13.144 31.6366 12.6533 31.6366 11.672C31.6366 11.5227 31.642 11.3627 31.6526 11.192C31.674 11.0107 31.706 10.8187 31.7486 10.616C31.706 10.584 31.6633 10.5413 31.6206 10.488C31.578 10.424 31.5353 10.3493 31.4926 10.264C31.5353 10.2747 31.578 10.296 31.6206 10.328C31.674 10.3493 31.738 10.3707 31.8126 10.392C31.93 9.85867 32.25 9.33067 32.7726 8.808C33.338 8.232 33.8713 7.944 34.3726 7.944C34.49 7.944 34.5486 7.96 34.5486 7.992C34.5486 8.01333 34.474 8.06667 34.3246 8.152C33.93 8.36533 33.5566 8.696 33.2046 9.144C32.8526 9.60267 32.5966 10.0507 32.4366 10.488L32.4686 10.52C32.9806 10.52 33.514 10.2747 34.0686 9.784C34.6233 9.29333 34.9006 8.792 34.9006 8.28C34.9006 8.12 34.858 7.976 34.7726 7.848C34.6873 7.72 34.57 7.656 34.4206 7.656C34.2073 7.656 33.9673 7.74133 33.7006 7.912C33.434 8.072 33.2846 8.152 33.2526 8.152C33.2313 8.152 33.2206 8.14667 33.2206 8.136C33.2206 8.008 33.4073 7.86933 33.7806 7.72C34.1006 7.592 34.3513 7.528 34.5326 7.528C34.778 7.528 34.9806 7.59733 35.1406 7.736C35.3113 7.87467 35.3966 8.06667 35.3966 8.312C35.3966 8.87733 35.0286 9.42667 34.2926 9.96C33.6313 10.4293 32.9913 10.6907 32.3726 10.744C32.2873 11 32.2446 11.2453 32.2446 11.48C32.2446 12.3653 32.5646 12.808 33.2046 12.808C33.6953 12.808 34.2073 12.5947 34.7406 12.168C35.1886 11.816 35.562 11.3893 35.8606 10.888C35.9566 10.7387 36.0366 10.664 36.1006 10.664C36.1113 10.664 36.1166 10.6747 36.1166 10.696C36.1166 10.7387 36.074 10.8347 35.9886 10.984C35.658 11.5067 35.194 11.9867 34.5966 12.424C33.946 12.904 33.338 13.144 32.7726 13.144ZM35.8754 13.176C35.7794 13.176 35.7314 13.1067 35.7314 12.968V12.936C35.774 12.7867 35.8167 12.6 35.8594 12.376C35.9127 12.152 35.9714 11.8907 36.0354 11.592C36.0994 11.2933 36.1794 10.92 36.2754 10.472C36.3714 10.0133 36.4887 9.48533 36.6274 8.888L36.4354 8.424C36.382 8.28533 36.3394 8.184 36.3074 8.12C36.286 8.056 36.2754 8.024 36.2754 8.024C36.2754 7.94933 36.366 7.88 36.5474 7.816C37.0807 7.61333 37.422 7.512 37.5714 7.512C37.7314 7.512 37.8114 7.56 37.8114 7.656C37.8007 7.624 37.5287 8.30667 36.9954 9.704V9.848C36.9954 10.1467 36.9474 10.296 36.8514 10.296C36.8407 10.296 36.8247 10.28 36.8034 10.248C36.718 10.5147 36.6327 10.7707 36.5474 11.016C36.4727 11.2507 36.4034 11.4853 36.3394 11.72C36.574 11.336 36.814 10.968 37.0594 10.616C37.3154 10.264 37.5767 9.93333 37.8434 9.624C38.6434 8.696 39.3047 8.232 39.8274 8.232C40.0727 8.232 40.1954 8.328 40.1954 8.52C40.1954 8.584 40.1794 8.664 40.1474 8.76C40.062 9.12267 39.9447 9.58133 39.7954 10.136C39.646 10.68 39.47 11.3147 39.2674 12.04C39.886 11.5813 40.366 11.0907 40.7074 10.568C40.7607 10.504 40.798 10.472 40.8194 10.472C40.8514 10.472 40.8674 10.4933 40.8674 10.536C40.8674 10.5573 40.8514 10.5947 40.8194 10.648C40.35 11.48 39.7794 12.1413 39.1074 12.632C39.0647 12.696 38.9954 12.728 38.8994 12.728C38.8247 12.728 38.7874 12.6853 38.7874 12.6C38.7874 12.5787 38.8034 12.4827 38.8354 12.312C38.8674 12.1307 38.91 11.88 38.9634 11.56C39.0167 11.3253 39.0647 11.096 39.1074 10.872C39.15 10.648 39.1927 10.4187 39.2354 10.184C39.31 9.66133 39.358 9.20267 39.3794 8.808C39.1447 8.91467 38.8887 9.09067 38.6114 9.336C38.3447 9.57067 38.046 9.86933 37.7154 10.232C37.4167 10.5627 37.1554 10.8773 36.9314 11.176C36.718 11.464 36.542 11.736 36.4034 11.992C36.254 12.28 36.142 12.5893 36.0674 12.92C36.0247 13.0907 35.9607 13.176 35.8754 13.176ZM36.7234 8.456L36.8674 7.928C36.814 7.97067 36.7127 8.024 36.5634 8.088L36.7234 8.456ZM42.6128 13.224C42.0794 13.224 41.8128 12.8987 41.8128 12.248C41.8128 11.7787 41.9301 11.1973 42.1648 10.504C42.1221 10.3653 42.0474 10.2427 41.9408 10.136C41.8448 10.0187 41.7061 9.92267 41.5247 9.848L40.6608 9.496C40.5221 9.432 40.4527 9.32 40.4527 9.16C40.4527 8.98933 40.5274 8.888 40.6768 8.856H41.1088C41.6741 8.856 42.2661 8.792 42.8848 8.664L42.9008 8.632L43.9568 6.296L44.4208 5.224C44.5061 5.032 44.7141 4.936 45.0448 4.936C45.2688 4.936 45.3808 4.98933 45.3808 5.096C45.3808 5.13867 45.1834 5.592 44.7888 6.456C44.3941 7.33067 44.1701 7.79467 44.1168 7.848L43.8448 8.104L43.6528 8.488C43.8128 8.43467 44.0848 8.344 44.4688 8.216C44.8634 8.07733 45.3701 7.90133 45.9888 7.688C46.0314 7.67733 46.0688 7.672 46.1008 7.672C46.1328 7.66133 46.1541 7.656 46.1648 7.656C46.2074 7.656 46.2288 7.66667 46.2288 7.688C46.2288 7.86933 45.3274 8.216 43.5248 8.728C43.3114 9.144 43.1301 9.50133 42.9808 9.8C42.8314 10.088 42.7194 10.3227 42.6448 10.504C42.3674 11.208 42.2288 11.8427 42.2288 12.408C42.2288 12.76 42.3461 12.936 42.5807 12.936C42.8688 12.936 43.2474 12.7333 43.7168 12.328L44.4368 11.704C44.4688 11.704 44.4848 11.72 44.4848 11.752C44.4848 11.784 44.4688 11.832 44.4368 11.896C44.2661 12.152 43.9941 12.424 43.6208 12.712C43.1834 13.0533 42.8474 13.224 42.6128 13.224ZM42.2288 10.28C42.3034 10.0667 42.3834 9.848 42.4688 9.624C42.5648 9.4 42.6661 9.17067 42.7728 8.936C42.5061 9 42.2341 9.05867 41.9568 9.112C41.6901 9.16533 41.4234 9.21333 41.1568 9.256C41.7114 9.544 42.0688 9.88533 42.2288 10.28ZM46.257 13.144C45.4997 13.144 45.121 12.6533 45.121 11.672C45.121 11.5227 45.1263 11.3627 45.137 11.192C45.1583 11.0107 45.1903 10.8187 45.233 10.616C45.1903 10.584 45.1477 10.5413 45.105 10.488C45.0623 10.424 45.0197 10.3493 44.977 10.264C45.0197 10.2747 45.0623 10.296 45.105 10.328C45.1583 10.3493 45.2223 10.3707 45.297 10.392C45.4143 9.85867 45.7343 9.33067 46.257 8.808C46.8223 8.232 47.3557 7.944 47.857 7.944C47.9743 7.944 48.033 7.96 48.033 7.992C48.033 8.01333 47.9583 8.06667 47.809 8.152C47.4143 8.36533 47.041 8.696 46.689 9.144C46.337 9.60267 46.081 10.0507 45.921 10.488L45.953 10.52C46.465 10.52 46.9983 10.2747 47.553 9.784C48.1077 9.29333 48.385 8.792 48.385 8.28C48.385 8.12 48.3423 7.976 48.257 7.848C48.1717 7.72 48.0543 7.656 47.905 7.656C47.6917 7.656 47.4517 7.74133 47.185 7.912C46.9183 8.072 46.769 8.152 46.737 8.152C46.7157 8.152 46.705 8.14667 46.705 8.136C46.705 8.008 46.8917 7.86933 47.265 7.72C47.585 7.592 47.8357 7.528 48.017 7.528C48.2623 7.528 48.465 7.59733 48.625 7.736C48.7957 7.87467 48.881 8.06667 48.881 8.312C48.881 8.87733 48.513 9.42667 47.777 9.96C47.1157 10.4293 46.4757 10.6907 45.857 10.744C45.7717 11 45.729 11.2453 45.729 11.48C45.729 12.3653 46.049 12.808 46.689 12.808C47.1797 12.808 47.6917 12.5947 48.225 12.168C48.673 11.816 49.0463 11.3893 49.345 10.888C49.441 10.7387 49.521 10.664 49.585 10.664C49.5957 10.664 49.601 10.6747 49.601 10.696C49.601 10.7387 49.5583 10.8347 49.473 10.984C49.1423 11.5067 48.6783 11.9867 48.081 12.424C47.4303 12.904 46.8223 13.144 46.257 13.144ZM50.0798 13.048C50.0051 13.048 49.9091 13.016 49.7918 12.952C49.6744 12.8773 49.6158 12.808 49.6158 12.744L49.8078 12.312C49.9891 11.896 50.1598 11.4907 50.3198 11.096C50.4904 10.6907 50.6291 10.2853 50.7358 9.88C50.8424 9.51733 50.8958 9.06933 50.8958 8.536C50.8638 8.64267 50.7944 8.79733 50.6878 9C50.5811 9.20267 50.4371 9.45867 50.2558 9.768C50.0851 10.0667 49.9304 10.3173 49.7918 10.52C49.6638 10.712 49.5571 10.8667 49.4718 10.984C49.4718 10.9947 49.4611 11 49.4398 11C49.3864 11 49.3598 10.9787 49.3598 10.936C49.3598 10.9147 49.3651 10.8987 49.3758 10.888L49.8717 10.104C50.1598 9.64533 50.3891 9.22933 50.5598 8.856C50.7304 8.472 50.8531 8.136 50.9278 7.848C50.9918 7.57067 51.0984 7.432 51.2478 7.432C51.4184 7.432 51.5038 7.64533 51.5038 8.072C51.5038 8.84 51.2584 9.784 50.7678 10.904C51.3438 10.1787 51.7438 9.69867 51.9678 9.464C52.5758 8.81333 53.0504 8.488 53.3918 8.488C53.7331 8.488 53.9038 8.712 53.9038 9.16C53.9038 9.46933 53.8184 9.74133 53.6478 9.976C53.4451 10.2747 53.2584 10.424 53.0878 10.424C53.0558 10.424 53.0398 10.4027 53.0398 10.36C53.0398 10.36 53.0984 10.2267 53.2158 9.96C53.3331 9.69333 53.3918 9.464 53.3918 9.272C53.3918 8.984 53.3011 8.84 53.1198 8.84C52.8424 8.84 52.4264 9.16533 51.8718 9.816C51.6371 10.0827 51.4344 10.3333 51.2638 10.568C51.0931 10.792 50.9544 10.9947 50.8478 11.176C50.8371 11.208 50.7838 11.336 50.6878 11.56C50.5918 11.784 50.4691 12.1147 50.3198 12.552L50.1598 13.016C50.1384 13.0373 50.1118 13.048 50.0798 13.048Z" fill="black"/>
</svg>
